<?xml version="1.0" encoding="utf-8" standalone="no"?>
<!DOCTYPE svg PUBLIC "-//W3C//DTD SVG 1.1//EN"
  "http://www.w3.org/Graphics/SVG/1.1/DTD/svg11.dtd">
<!-- Created with matplotlib (https://matplotlib.org/) -->
<svg height="345.6pt" version="1.1" viewBox="0 0 460.8 345.6" width="460.8pt" xmlns="http://www.w3.org/2000/svg" xmlns:xlink="http://www.w3.org/1999/xlink">
 <defs>
  <style type="text/css">
*{stroke-linecap:butt;stroke-linejoin:round;}
  </style>
 </defs>
 <g id="figure_1">
  <g id="patch_1">
   <path d="M 0 345.6 
L 460.8 345.6 
L 460.8 0 
L 0 0 
z
" style="fill:#ffffff;"/>
  </g>
  <g id="axes_1">
   <g id="patch_2">
    <path d="M 57.507096 303.64 
L 450 303.64 
L 450 25.44 
L 57.507096 25.44 
z
" style="fill:#ffffff;"/>
   </g>
   <g id="matplotlib.axis_1">
    <g id="xtick_1">
     <g id="line2d_1">
      <path clip-path="url(#p0d405029cd)" d="M 74.990514 303.64 
L 74.990514 25.44 
" style="fill:none;stroke:#b0b0b0;stroke-linecap:square;stroke-width:0.8;"/>
     </g>
     <g id="line2d_2">
      <defs>
       <path d="M 0 0 
L 0 3.5 
" id="me5aea6d370" style="stroke:#000000;stroke-width:0.8;"/>
      </defs>
      <g>
       <use style="stroke:#000000;stroke-width:0.8;" x="74.990514" xlink:href="#me5aea6d370" y="303.64"/>
      </g>
     </g>
     <g id="text_1">
      <!-- 0 -->
      <defs>
       <path d="M 31.78125 66.40625 
Q 24.171875 66.40625 20.328125 58.90625 
Q 16.5 51.421875 16.5 36.375 
Q 16.5 21.390625 20.328125 13.890625 
Q 24.171875 6.390625 31.78125 6.390625 
Q 39.453125 6.390625 43.28125 13.890625 
Q 47.125 21.390625 47.125 36.375 
Q 47.125 51.421875 43.28125 58.90625 
Q 39.453125 66.40625 31.78125 66.40625 
z
M 31.78125 74.21875 
Q 44.046875 74.21875 50.515625 64.515625 
Q 56.984375 54.828125 56.984375 36.375 
Q 56.984375 17.96875 50.515625 8.265625 
Q 44.046875 -1.421875 31.78125 -1.421875 
Q 19.53125 -1.421875 13.0625 8.265625 
Q 6.59375 17.96875 6.59375 36.375 
Q 6.59375 54.828125 13.0625 64.515625 
Q 19.53125 74.21875 31.78125 74.21875 
z
" id="DejaVuSans-48"/>
      </defs>
      <g transform="translate(71.809264 318.238437)scale(0.1 -0.1)">
       <use xlink:href="#DejaVuSans-48"/>
      </g>
     </g>
    </g>
    <g id="xtick_2">
     <g id="line2d_3">
      <path clip-path="url(#p0d405029cd)" d="M 146.424294 303.64 
L 146.424294 25.44 
" style="fill:none;stroke:#b0b0b0;stroke-linecap:square;stroke-width:0.8;"/>
     </g>
     <g id="line2d_4">
      <g>
       <use style="stroke:#000000;stroke-width:0.8;" x="146.424294" xlink:href="#me5aea6d370" y="303.64"/>
      </g>
     </g>
     <g id="text_2">
      <!-- 200 -->
      <defs>
       <path d="M 19.1875 8.296875 
L 53.609375 8.296875 
L 53.609375 0 
L 7.328125 0 
L 7.328125 8.296875 
Q 12.9375 14.109375 22.625 23.890625 
Q 32.328125 33.6875 34.8125 36.53125 
Q 39.546875 41.84375 41.421875 45.53125 
Q 43.3125 49.21875 43.3125 52.78125 
Q 43.3125 58.59375 39.234375 62.25 
Q 35.15625 65.921875 28.609375 65.921875 
Q 23.96875 65.921875 18.8125 64.3125 
Q 13.671875 62.703125 7.8125 59.421875 
L 7.8125 69.390625 
Q 13.765625 71.78125 18.9375 73 
Q 24.125 74.21875 28.421875 74.21875 
Q 39.75 74.21875 46.484375 68.546875 
Q 53.21875 62.890625 53.21875 53.421875 
Q 53.21875 48.921875 51.53125 44.890625 
Q 49.859375 40.875 45.40625 35.40625 
Q 44.1875 33.984375 37.640625 27.21875 
Q 31.109375 20.453125 19.1875 8.296875 
z
" id="DejaVuSans-50"/>
      </defs>
      <g transform="translate(136.880544 318.238437)scale(0.1 -0.1)">
       <use xlink:href="#DejaVuSans-50"/>
       <use x="63.623047" xlink:href="#DejaVuSans-48"/>
       <use x="127.246094" xlink:href="#DejaVuSans-48"/>
      </g>
     </g>
    </g>
    <g id="xtick_3">
     <g id="line2d_5">
      <path clip-path="url(#p0d405029cd)" d="M 217.858074 303.64 
L 217.858074 25.44 
" style="fill:none;stroke:#b0b0b0;stroke-linecap:square;stroke-width:0.8;"/>
     </g>
     <g id="line2d_6">
      <g>
       <use style="stroke:#000000;stroke-width:0.8;" x="217.858074" xlink:href="#me5aea6d370" y="303.64"/>
      </g>
     </g>
     <g id="text_3">
      <!-- 400 -->
      <defs>
       <path d="M 37.796875 64.3125 
L 12.890625 25.390625 
L 37.796875 25.390625 
z
M 35.203125 72.90625 
L 47.609375 72.90625 
L 47.609375 25.390625 
L 58.015625 25.390625 
L 58.015625 17.1875 
L 47.609375 17.1875 
L 47.609375 0 
L 37.796875 0 
L 37.796875 17.1875 
L 4.890625 17.1875 
L 4.890625 26.703125 
z
" id="DejaVuSans-52"/>
      </defs>
      <g transform="translate(208.314324 318.238437)scale(0.1 -0.1)">
       <use xlink:href="#DejaVuSans-52"/>
       <use x="63.623047" xlink:href="#DejaVuSans-48"/>
       <use x="127.246094" xlink:href="#DejaVuSans-48"/>
      </g>
     </g>
    </g>
    <g id="xtick_4">
     <g id="line2d_7">
      <path clip-path="url(#p0d405029cd)" d="M 289.291854 303.64 
L 289.291854 25.44 
" style="fill:none;stroke:#b0b0b0;stroke-linecap:square;stroke-width:0.8;"/>
     </g>
     <g id="line2d_8">
      <g>
       <use style="stroke:#000000;stroke-width:0.8;" x="289.291854" xlink:href="#me5aea6d370" y="303.64"/>
      </g>
     </g>
     <g id="text_4">
      <!-- 600 -->
      <defs>
       <path d="M 33.015625 40.375 
Q 26.375 40.375 22.484375 35.828125 
Q 18.609375 31.296875 18.609375 23.390625 
Q 18.609375 15.53125 22.484375 10.953125 
Q 26.375 6.390625 33.015625 6.390625 
Q 39.65625 6.390625 43.53125 10.953125 
Q 47.40625 15.53125 47.40625 23.390625 
Q 47.40625 31.296875 43.53125 35.828125 
Q 39.65625 40.375 33.015625 40.375 
z
M 52.59375 71.296875 
L 52.59375 62.3125 
Q 48.875 64.0625 45.09375 64.984375 
Q 41.3125 65.921875 37.59375 65.921875 
Q 27.828125 65.921875 22.671875 59.328125 
Q 17.53125 52.734375 16.796875 39.40625 
Q 19.671875 43.65625 24.015625 45.921875 
Q 28.375 48.1875 33.59375 48.1875 
Q 44.578125 48.1875 50.953125 41.515625 
Q 57.328125 34.859375 57.328125 23.390625 
Q 57.328125 12.15625 50.6875 5.359375 
Q 44.046875 -1.421875 33.015625 -1.421875 
Q 20.359375 -1.421875 13.671875 8.265625 
Q 6.984375 17.96875 6.984375 36.375 
Q 6.984375 53.65625 15.1875 63.9375 
Q 23.390625 74.21875 37.203125 74.21875 
Q 40.921875 74.21875 44.703125 73.484375 
Q 48.484375 72.75 52.59375 71.296875 
z
" id="DejaVuSans-54"/>
      </defs>
      <g transform="translate(279.748104 318.238437)scale(0.1 -0.1)">
       <use xlink:href="#DejaVuSans-54"/>
       <use x="63.623047" xlink:href="#DejaVuSans-48"/>
       <use x="127.246094" xlink:href="#DejaVuSans-48"/>
      </g>
     </g>
    </g>
    <g id="xtick_5">
     <g id="line2d_9">
      <path clip-path="url(#p0d405029cd)" d="M 360.725634 303.64 
L 360.725634 25.44 
" style="fill:none;stroke:#b0b0b0;stroke-linecap:square;stroke-width:0.8;"/>
     </g>
     <g id="line2d_10">
      <g>
       <use style="stroke:#000000;stroke-width:0.8;" x="360.725634" xlink:href="#me5aea6d370" y="303.64"/>
      </g>
     </g>
     <g id="text_5">
      <!-- 800 -->
      <defs>
       <path d="M 31.78125 34.625 
Q 24.75 34.625 20.71875 30.859375 
Q 16.703125 27.09375 16.703125 20.515625 
Q 16.703125 13.921875 20.71875 10.15625 
Q 24.75 6.390625 31.78125 6.390625 
Q 38.8125 6.390625 42.859375 10.171875 
Q 46.921875 13.96875 46.921875 20.515625 
Q 46.921875 27.09375 42.890625 30.859375 
Q 38.875 34.625 31.78125 34.625 
z
M 21.921875 38.8125 
Q 15.578125 40.375 12.03125 44.71875 
Q 8.5 49.078125 8.5 55.328125 
Q 8.5 64.0625 14.71875 69.140625 
Q 20.953125 74.21875 31.78125 74.21875 
Q 42.671875 74.21875 48.875 69.140625 
Q 55.078125 64.0625 55.078125 55.328125 
Q 55.078125 49.078125 51.53125 44.71875 
Q 48 40.375 41.703125 38.8125 
Q 48.828125 37.15625 52.796875 32.3125 
Q 56.78125 27.484375 56.78125 20.515625 
Q 56.78125 9.90625 50.3125 4.234375 
Q 43.84375 -1.421875 31.78125 -1.421875 
Q 19.734375 -1.421875 13.25 4.234375 
Q 6.78125 9.90625 6.78125 20.515625 
Q 6.78125 27.484375 10.78125 32.3125 
Q 14.796875 37.15625 21.921875 38.8125 
z
M 18.3125 54.390625 
Q 18.3125 48.734375 21.84375 45.5625 
Q 25.390625 42.390625 31.78125 42.390625 
Q 38.140625 42.390625 41.71875 45.5625 
Q 45.3125 48.734375 45.3125 54.390625 
Q 45.3125 60.0625 41.71875 63.234375 
Q 38.140625 66.40625 31.78125 66.40625 
Q 25.390625 66.40625 21.84375 63.234375 
Q 18.3125 60.0625 18.3125 54.390625 
z
" id="DejaVuSans-56"/>
      </defs>
      <g transform="translate(351.181884 318.238437)scale(0.1 -0.1)">
       <use xlink:href="#DejaVuSans-56"/>
       <use x="63.623047" xlink:href="#DejaVuSans-48"/>
       <use x="127.246094" xlink:href="#DejaVuSans-48"/>
      </g>
     </g>
    </g>
    <g id="xtick_6">
     <g id="line2d_11">
      <path clip-path="url(#p0d405029cd)" d="M 432.159413 303.64 
L 432.159413 25.44 
" style="fill:none;stroke:#b0b0b0;stroke-linecap:square;stroke-width:0.8;"/>
     </g>
     <g id="line2d_12">
      <g>
       <use style="stroke:#000000;stroke-width:0.8;" x="432.159413" xlink:href="#me5aea6d370" y="303.64"/>
      </g>
     </g>
     <g id="text_6">
      <!-- 1000 -->
      <defs>
       <path d="M 12.40625 8.296875 
L 28.515625 8.296875 
L 28.515625 63.921875 
L 10.984375 60.40625 
L 10.984375 69.390625 
L 28.421875 72.90625 
L 38.28125 72.90625 
L 38.28125 8.296875 
L 54.390625 8.296875 
L 54.390625 0 
L 12.40625 0 
z
" id="DejaVuSans-49"/>
      </defs>
      <g transform="translate(419.434413 318.238437)scale(0.1 -0.1)">
       <use xlink:href="#DejaVuSans-49"/>
       <use x="63.623047" xlink:href="#DejaVuSans-48"/>
       <use x="127.246094" xlink:href="#DejaVuSans-48"/>
       <use x="190.869141" xlink:href="#DejaVuSans-48"/>
      </g>
     </g>
    </g>
    <g id="text_7">
     <!-- Epoch -->
     <defs>
      <path d="M 9.8125 72.90625 
L 55.90625 72.90625 
L 55.90625 64.59375 
L 19.671875 64.59375 
L 19.671875 43.015625 
L 54.390625 43.015625 
L 54.390625 34.71875 
L 19.671875 34.71875 
L 19.671875 8.296875 
L 56.78125 8.296875 
L 56.78125 0 
L 9.8125 0 
z
" id="DejaVuSans-69"/>
      <path d="M 18.109375 8.203125 
L 18.109375 -20.796875 
L 9.078125 -20.796875 
L 9.078125 54.6875 
L 18.109375 54.6875 
L 18.109375 46.390625 
Q 20.953125 51.265625 25.265625 53.625 
Q 29.59375 56 35.59375 56 
Q 45.5625 56 51.78125 48.09375 
Q 58.015625 40.1875 58.015625 27.296875 
Q 58.015625 14.40625 51.78125 6.484375 
Q 45.5625 -1.421875 35.59375 -1.421875 
Q 29.59375 -1.421875 25.265625 0.953125 
Q 20.953125 3.328125 18.109375 8.203125 
z
M 48.6875 27.296875 
Q 48.6875 37.203125 44.609375 42.84375 
Q 40.53125 48.484375 33.40625 48.484375 
Q 26.265625 48.484375 22.1875 42.84375 
Q 18.109375 37.203125 18.109375 27.296875 
Q 18.109375 17.390625 22.1875 11.75 
Q 26.265625 6.109375 33.40625 6.109375 
Q 40.53125 6.109375 44.609375 11.75 
Q 48.6875 17.390625 48.6875 27.296875 
z
" id="DejaVuSans-112"/>
      <path d="M 30.609375 48.390625 
Q 23.390625 48.390625 19.1875 42.75 
Q 14.984375 37.109375 14.984375 27.296875 
Q 14.984375 17.484375 19.15625 11.84375 
Q 23.34375 6.203125 30.609375 6.203125 
Q 37.796875 6.203125 41.984375 11.859375 
Q 46.1875 17.53125 46.1875 27.296875 
Q 46.1875 37.015625 41.984375 42.703125 
Q 37.796875 48.390625 30.609375 48.390625 
z
M 30.609375 56 
Q 42.328125 56 49.015625 48.375 
Q 55.71875 40.765625 55.71875 27.296875 
Q 55.71875 13.875 49.015625 6.21875 
Q 42.328125 -1.421875 30.609375 -1.421875 
Q 18.84375 -1.421875 12.171875 6.21875 
Q 5.515625 13.875 5.515625 27.296875 
Q 5.515625 40.765625 12.171875 48.375 
Q 18.84375 56 30.609375 56 
z
" id="DejaVuSans-111"/>
      <path d="M 48.78125 52.59375 
L 48.78125 44.1875 
Q 44.96875 46.296875 41.140625 47.34375 
Q 37.3125 48.390625 33.40625 48.390625 
Q 24.65625 48.390625 19.8125 42.84375 
Q 14.984375 37.3125 14.984375 27.296875 
Q 14.984375 17.28125 19.8125 11.734375 
Q 24.65625 6.203125 33.40625 6.203125 
Q 37.3125 6.203125 41.140625 7.25 
Q 44.96875 8.296875 48.78125 10.40625 
L 48.78125 2.09375 
Q 45.015625 0.34375 40.984375 -0.53125 
Q 36.96875 -1.421875 32.421875 -1.421875 
Q 20.0625 -1.421875 12.78125 6.34375 
Q 5.515625 14.109375 5.515625 27.296875 
Q 5.515625 40.671875 12.859375 48.328125 
Q 20.21875 56 33.015625 56 
Q 37.15625 56 41.109375 55.140625 
Q 45.0625 54.296875 48.78125 52.59375 
z
" id="DejaVuSans-99"/>
      <path d="M 54.890625 33.015625 
L 54.890625 0 
L 45.90625 0 
L 45.90625 32.71875 
Q 45.90625 40.484375 42.875 44.328125 
Q 39.84375 48.1875 33.796875 48.1875 
Q 26.515625 48.1875 22.3125 43.546875 
Q 18.109375 38.921875 18.109375 30.90625 
L 18.109375 0 
L 9.078125 0 
L 9.078125 75.984375 
L 18.109375 75.984375 
L 18.109375 46.1875 
Q 21.34375 51.125 25.703125 53.5625 
Q 30.078125 56 35.796875 56 
Q 45.21875 56 50.046875 50.171875 
Q 54.890625 44.34375 54.890625 33.015625 
z
" id="DejaVuSans-104"/>
     </defs>
     <g transform="translate(238.442611 331.916562)scale(0.1 -0.1)">
      <use xlink:href="#DejaVuSans-69"/>
      <use x="63.183594" xlink:href="#DejaVuSans-112"/>
      <use x="126.660156" xlink:href="#DejaVuSans-111"/>
      <use x="187.841797" xlink:href="#DejaVuSans-99"/>
      <use x="242.822266" xlink:href="#DejaVuSans-104"/>
     </g>
    </g>
   </g>
   <g id="matplotlib.axis_2">
    <g id="ytick_1">
     <g id="line2d_13">
      <path clip-path="url(#p0d405029cd)" d="M 57.507096 221.167114 
L 450 221.167114 
" style="fill:none;stroke:#b0b0b0;stroke-linecap:square;stroke-width:0.8;"/>
     </g>
     <g id="line2d_14">
      <defs>
       <path d="M 0 0 
L -3.5 0 
" id="m8f907ca066" style="stroke:#000000;stroke-width:0.8;"/>
      </defs>
      <g>
       <use style="stroke:#000000;stroke-width:0.8;" x="57.507096" xlink:href="#m8f907ca066" y="221.167114"/>
      </g>
     </g>
     <g id="text_8">
      <!-- $\mathdefault{10^{-2}}$ -->
      <defs>
       <path d="M 10.59375 35.5 
L 73.1875 35.5 
L 73.1875 27.203125 
L 10.59375 27.203125 
z
" id="DejaVuSans-8722"/>
      </defs>
      <g transform="translate(27.007096 224.966333)scale(0.1 -0.1)">
       <use transform="translate(0 0.765625)" xlink:href="#DejaVuSans-49"/>
       <use transform="translate(63.623047 0.765625)" xlink:href="#DejaVuSans-48"/>
       <use transform="translate(128.203125 39.046875)scale(0.7)" xlink:href="#DejaVuSans-8722"/>
       <use transform="translate(186.855469 39.046875)scale(0.7)" xlink:href="#DejaVuSans-50"/>
      </g>
     </g>
    </g>
    <g id="ytick_2">
     <g id="line2d_15">
      <path clip-path="url(#p0d405029cd)" d="M 57.507096 118.625013 
L 450 118.625013 
" style="fill:none;stroke:#b0b0b0;stroke-linecap:square;stroke-width:0.8;"/>
     </g>
     <g id="line2d_16">
      <g>
       <use style="stroke:#000000;stroke-width:0.8;" x="57.507096" xlink:href="#m8f907ca066" y="118.625013"/>
      </g>
     </g>
     <g id="text_9">
      <!-- $\mathdefault{10^{-1}}$ -->
      <g transform="translate(27.007096 122.424231)scale(0.1 -0.1)">
       <use transform="translate(0 0.684375)" xlink:href="#DejaVuSans-49"/>
       <use transform="translate(63.623047 0.684375)" xlink:href="#DejaVuSans-48"/>
       <use transform="translate(128.203125 38.965625)scale(0.7)" xlink:href="#DejaVuSans-8722"/>
       <use transform="translate(186.855469 38.965625)scale(0.7)" xlink:href="#DejaVuSans-49"/>
      </g>
     </g>
    </g>
    <g id="ytick_3">
     <g id="line2d_17">
      <path clip-path="url(#p0d405029cd)" d="M 57.507096 292.840967 
L 450 292.840967 
" style="fill:none;stroke:#b0b0b0;stroke-linecap:square;stroke-width:0.8;"/>
     </g>
     <g id="line2d_18">
      <defs>
       <path d="M 0 0 
L -2 0 
" id="m4412b1828f" style="stroke:#000000;stroke-width:0.6;"/>
      </defs>
      <g>
       <use style="stroke:#000000;stroke-width:0.6;" x="57.507096" xlink:href="#m4412b1828f" y="292.840967"/>
      </g>
     </g>
    </g>
    <g id="ytick_4">
     <g id="line2d_19">
      <path clip-path="url(#p0d405029cd)" d="M 57.507096 274.784199 
L 450 274.784199 
" style="fill:none;stroke:#b0b0b0;stroke-linecap:square;stroke-width:0.8;"/>
     </g>
     <g id="line2d_20">
      <g>
       <use style="stroke:#000000;stroke-width:0.6;" x="57.507096" xlink:href="#m4412b1828f" y="274.784199"/>
      </g>
     </g>
    </g>
    <g id="ytick_5">
     <g id="line2d_21">
      <path clip-path="url(#p0d405029cd)" d="M 57.507096 261.972719 
L 450 261.972719 
" style="fill:none;stroke:#b0b0b0;stroke-linecap:square;stroke-width:0.8;"/>
     </g>
     <g id="line2d_22">
      <g>
       <use style="stroke:#000000;stroke-width:0.6;" x="57.507096" xlink:href="#m4412b1828f" y="261.972719"/>
      </g>
     </g>
    </g>
    <g id="ytick_6">
     <g id="line2d_23">
      <path clip-path="url(#p0d405029cd)" d="M 57.507096 252.035362 
L 450 252.035362 
" style="fill:none;stroke:#b0b0b0;stroke-linecap:square;stroke-width:0.8;"/>
     </g>
     <g id="line2d_24">
      <g>
       <use style="stroke:#000000;stroke-width:0.6;" x="57.507096" xlink:href="#m4412b1828f" y="252.035362"/>
      </g>
     </g>
    </g>
    <g id="ytick_7">
     <g id="line2d_25">
      <path clip-path="url(#p0d405029cd)" d="M 57.507096 243.915951 
L 450 243.915951 
" style="fill:none;stroke:#b0b0b0;stroke-linecap:square;stroke-width:0.8;"/>
     </g>
     <g id="line2d_26">
      <g>
       <use style="stroke:#000000;stroke-width:0.6;" x="57.507096" xlink:href="#m4412b1828f" y="243.915951"/>
      </g>
     </g>
    </g>
    <g id="ytick_8">
     <g id="line2d_27">
      <path clip-path="url(#p0d405029cd)" d="M 57.507096 237.051087 
L 450 237.051087 
" style="fill:none;stroke:#b0b0b0;stroke-linecap:square;stroke-width:0.8;"/>
     </g>
     <g id="line2d_28">
      <g>
       <use style="stroke:#000000;stroke-width:0.6;" x="57.507096" xlink:href="#m4412b1828f" y="237.051087"/>
      </g>
     </g>
    </g>
    <g id="ytick_9">
     <g id="line2d_29">
      <path clip-path="url(#p0d405029cd)" d="M 57.507096 231.10447 
L 450 231.10447 
" style="fill:none;stroke:#b0b0b0;stroke-linecap:square;stroke-width:0.8;"/>
     </g>
     <g id="line2d_30">
      <g>
       <use style="stroke:#000000;stroke-width:0.6;" x="57.507096" xlink:href="#m4412b1828f" y="231.10447"/>
      </g>
     </g>
    </g>
    <g id="ytick_10">
     <g id="line2d_31">
      <path clip-path="url(#p0d405029cd)" d="M 57.507096 225.859183 
L 450 225.859183 
" style="fill:none;stroke:#b0b0b0;stroke-linecap:square;stroke-width:0.8;"/>
     </g>
     <g id="line2d_32">
      <g>
       <use style="stroke:#000000;stroke-width:0.6;" x="57.507096" xlink:href="#m4412b1828f" y="225.859183"/>
      </g>
     </g>
    </g>
    <g id="ytick_11">
     <g id="line2d_33">
      <path clip-path="url(#p0d405029cd)" d="M 57.507096 190.298866 
L 450 190.298866 
" style="fill:none;stroke:#b0b0b0;stroke-linecap:square;stroke-width:0.8;"/>
     </g>
     <g id="line2d_34">
      <g>
       <use style="stroke:#000000;stroke-width:0.6;" x="57.507096" xlink:href="#m4412b1828f" y="190.298866"/>
      </g>
     </g>
    </g>
    <g id="ytick_12">
     <g id="line2d_35">
      <path clip-path="url(#p0d405029cd)" d="M 57.507096 172.242098 
L 450 172.242098 
" style="fill:none;stroke:#b0b0b0;stroke-linecap:square;stroke-width:0.8;"/>
     </g>
     <g id="line2d_36">
      <g>
       <use style="stroke:#000000;stroke-width:0.6;" x="57.507096" xlink:href="#m4412b1828f" y="172.242098"/>
      </g>
     </g>
    </g>
    <g id="ytick_13">
     <g id="line2d_37">
      <path clip-path="url(#p0d405029cd)" d="M 57.507096 159.430617 
L 450 159.430617 
" style="fill:none;stroke:#b0b0b0;stroke-linecap:square;stroke-width:0.8;"/>
     </g>
     <g id="line2d_38">
      <g>
       <use style="stroke:#000000;stroke-width:0.6;" x="57.507096" xlink:href="#m4412b1828f" y="159.430617"/>
      </g>
     </g>
    </g>
    <g id="ytick_14">
     <g id="line2d_39">
      <path clip-path="url(#p0d405029cd)" d="M 57.507096 149.493261 
L 450 149.493261 
" style="fill:none;stroke:#b0b0b0;stroke-linecap:square;stroke-width:0.8;"/>
     </g>
     <g id="line2d_40">
      <g>
       <use style="stroke:#000000;stroke-width:0.6;" x="57.507096" xlink:href="#m4412b1828f" y="149.493261"/>
      </g>
     </g>
    </g>
    <g id="ytick_15">
     <g id="line2d_41">
      <path clip-path="url(#p0d405029cd)" d="M 57.507096 141.37385 
L 450 141.37385 
" style="fill:none;stroke:#b0b0b0;stroke-linecap:square;stroke-width:0.8;"/>
     </g>
     <g id="line2d_42">
      <g>
       <use style="stroke:#000000;stroke-width:0.6;" x="57.507096" xlink:href="#m4412b1828f" y="141.37385"/>
      </g>
     </g>
    </g>
    <g id="ytick_16">
     <g id="line2d_43">
      <path clip-path="url(#p0d405029cd)" d="M 57.507096 134.508985 
L 450 134.508985 
" style="fill:none;stroke:#b0b0b0;stroke-linecap:square;stroke-width:0.8;"/>
     </g>
     <g id="line2d_44">
      <g>
       <use style="stroke:#000000;stroke-width:0.6;" x="57.507096" xlink:href="#m4412b1828f" y="134.508985"/>
      </g>
     </g>
    </g>
    <g id="ytick_17">
     <g id="line2d_45">
      <path clip-path="url(#p0d405029cd)" d="M 57.507096 128.562369 
L 450 128.562369 
" style="fill:none;stroke:#b0b0b0;stroke-linecap:square;stroke-width:0.8;"/>
     </g>
     <g id="line2d_46">
      <g>
       <use style="stroke:#000000;stroke-width:0.6;" x="57.507096" xlink:href="#m4412b1828f" y="128.562369"/>
      </g>
     </g>
    </g>
    <g id="ytick_18">
     <g id="line2d_47">
      <path clip-path="url(#p0d405029cd)" d="M 57.507096 123.317082 
L 450 123.317082 
" style="fill:none;stroke:#b0b0b0;stroke-linecap:square;stroke-width:0.8;"/>
     </g>
     <g id="line2d_48">
      <g>
       <use style="stroke:#000000;stroke-width:0.6;" x="57.507096" xlink:href="#m4412b1828f" y="123.317082"/>
      </g>
     </g>
    </g>
    <g id="ytick_19">
     <g id="line2d_49">
      <path clip-path="url(#p0d405029cd)" d="M 57.507096 87.756764 
L 450 87.756764 
" style="fill:none;stroke:#b0b0b0;stroke-linecap:square;stroke-width:0.8;"/>
     </g>
     <g id="line2d_50">
      <g>
       <use style="stroke:#000000;stroke-width:0.6;" x="57.507096" xlink:href="#m4412b1828f" y="87.756764"/>
      </g>
     </g>
    </g>
    <g id="ytick_20">
     <g id="line2d_51">
      <path clip-path="url(#p0d405029cd)" d="M 57.507096 69.699997 
L 450 69.699997 
" style="fill:none;stroke:#b0b0b0;stroke-linecap:square;stroke-width:0.8;"/>
     </g>
     <g id="line2d_52">
      <g>
       <use style="stroke:#000000;stroke-width:0.6;" x="57.507096" xlink:href="#m4412b1828f" y="69.699997"/>
      </g>
     </g>
    </g>
    <g id="ytick_21">
     <g id="line2d_53">
      <path clip-path="url(#p0d405029cd)" d="M 57.507096 56.888516 
L 450 56.888516 
" style="fill:none;stroke:#b0b0b0;stroke-linecap:square;stroke-width:0.8;"/>
     </g>
     <g id="line2d_54">
      <g>
       <use style="stroke:#000000;stroke-width:0.6;" x="57.507096" xlink:href="#m4412b1828f" y="56.888516"/>
      </g>
     </g>
    </g>
    <g id="ytick_22">
     <g id="line2d_55">
      <path clip-path="url(#p0d405029cd)" d="M 57.507096 46.95116 
L 450 46.95116 
" style="fill:none;stroke:#b0b0b0;stroke-linecap:square;stroke-width:0.8;"/>
     </g>
     <g id="line2d_56">
      <g>
       <use style="stroke:#000000;stroke-width:0.6;" x="57.507096" xlink:href="#m4412b1828f" y="46.95116"/>
      </g>
     </g>
    </g>
    <g id="ytick_23">
     <g id="line2d_57">
      <path clip-path="url(#p0d405029cd)" d="M 57.507096 38.831748 
L 450 38.831748 
" style="fill:none;stroke:#b0b0b0;stroke-linecap:square;stroke-width:0.8;"/>
     </g>
     <g id="line2d_58">
      <g>
       <use style="stroke:#000000;stroke-width:0.6;" x="57.507096" xlink:href="#m4412b1828f" y="38.831748"/>
      </g>
     </g>
    </g>
    <g id="ytick_24">
     <g id="line2d_59">
      <path clip-path="url(#p0d405029cd)" d="M 57.507096 31.966884 
L 450 31.966884 
" style="fill:none;stroke:#b0b0b0;stroke-linecap:square;stroke-width:0.8;"/>
     </g>
     <g id="line2d_60">
      <g>
       <use style="stroke:#000000;stroke-width:0.6;" x="57.507096" xlink:href="#m4412b1828f" y="31.966884"/>
      </g>
     </g>
    </g>
    <g id="ytick_25">
     <g id="line2d_61">
      <path clip-path="url(#p0d405029cd)" d="M 57.507096 26.020268 
L 450 26.020268 
" style="fill:none;stroke:#b0b0b0;stroke-linecap:square;stroke-width:0.8;"/>
     </g>
     <g id="line2d_62">
      <g>
       <use style="stroke:#000000;stroke-width:0.6;" x="57.507096" xlink:href="#m4412b1828f" y="26.020268"/>
      </g>
     </g>
    </g>
    <g id="text_10">
     <!-- $L_{2}$-error -->
     <defs>
      <path d="M 16.796875 72.90625 
L 26.703125 72.90625 
L 14.203125 8.203125 
L 49.703125 8.203125 
L 48.09375 0 
L 2.6875 0 
z
" id="DejaVuSans-Oblique-76"/>
      <path d="M 4.890625 31.390625 
L 31.203125 31.390625 
L 31.203125 23.390625 
L 4.890625 23.390625 
z
" id="DejaVuSans-45"/>
      <path d="M 56.203125 29.59375 
L 56.203125 25.203125 
L 14.890625 25.203125 
Q 15.484375 15.921875 20.484375 11.0625 
Q 25.484375 6.203125 34.421875 6.203125 
Q 39.59375 6.203125 44.453125 7.46875 
Q 49.3125 8.734375 54.109375 11.28125 
L 54.109375 2.78125 
Q 49.265625 0.734375 44.1875 -0.34375 
Q 39.109375 -1.421875 33.890625 -1.421875 
Q 20.796875 -1.421875 13.15625 6.1875 
Q 5.515625 13.8125 5.515625 26.8125 
Q 5.515625 40.234375 12.765625 48.109375 
Q 20.015625 56 32.328125 56 
Q 43.359375 56 49.78125 48.890625 
Q 56.203125 41.796875 56.203125 29.59375 
z
M 47.21875 32.234375 
Q 47.125 39.59375 43.09375 43.984375 
Q 39.0625 48.390625 32.421875 48.390625 
Q 24.90625 48.390625 20.390625 44.140625 
Q 15.875 39.890625 15.1875 32.171875 
z
" id="DejaVuSans-101"/>
      <path d="M 41.109375 46.296875 
Q 39.59375 47.171875 37.8125 47.578125 
Q 36.03125 48 33.890625 48 
Q 26.265625 48 22.1875 43.046875 
Q 18.109375 38.09375 18.109375 28.8125 
L 18.109375 0 
L 9.078125 0 
L 9.078125 54.6875 
L 18.109375 54.6875 
L 18.109375 46.1875 
Q 20.953125 51.171875 25.484375 53.578125 
Q 30.03125 56 36.53125 56 
Q 37.453125 56 38.578125 55.875 
Q 39.703125 55.765625 41.0625 55.515625 
z
" id="DejaVuSans-114"/>
     </defs>
     <g transform="translate(20.927409 183.84)rotate(-90)scale(0.1 -0.1)">
      <use transform="translate(0 0.09375)" xlink:href="#DejaVuSans-Oblique-76"/>
      <use transform="translate(55.712891 -16.3125)scale(0.7)" xlink:href="#DejaVuSans-50"/>
      <use transform="translate(102.983398 0.09375)" xlink:href="#DejaVuSans-45"/>
      <use transform="translate(139.067383 0.09375)" xlink:href="#DejaVuSans-101"/>
      <use transform="translate(200.59082 0.09375)" xlink:href="#DejaVuSans-114"/>
      <use transform="translate(241.704102 0.09375)" xlink:href="#DejaVuSans-114"/>
      <use transform="translate(282.817383 0.09375)" xlink:href="#DejaVuSans-111"/>
      <use transform="translate(343.999023 0.09375)" xlink:href="#DejaVuSans-114"/>
     </g>
    </g>
   </g>
   <g id="line2d_63">
    <path clip-path="url(#p0d405029cd)" d="M 75.347683 95.181915 
L 75.704852 38.085455 
L 76.419189 92.009494 
L 76.776358 90.591189 
L 77.133527 83.868639 
L 77.490696 95.528219 
L 77.847865 92.475402 
L 78.205034 92.019428 
L 79.990878 91.673581 
L 80.348047 91.818644 
L 80.705216 92.24436 
L 81.062385 92.994436 
L 81.419554 95.183672 
L 81.776723 102.290713 
L 82.133892 96.064632 
L 82.491061 103.024394 
L 82.84823 104.236738 
L 83.205398 101.598225 
L 83.562567 102.892893 
L 83.919736 107.297437 
L 84.276905 108.576051 
L 84.634074 107.981329 
L 84.991243 111.891675 
L 85.348412 110.233703 
L 85.705581 110.829542 
L 86.06275 112.965081 
L 86.419919 113.23024 
L 86.777087 112.88477 
L 87.134256 114.026121 
L 87.491425 114.097218 
L 87.848594 114.762889 
L 88.205763 115.133758 
L 88.562932 115.218944 
L 88.920101 116.572496 
L 89.27727 115.926655 
L 89.634439 116.123568 
L 89.991608 116.942509 
L 90.348776 117.148813 
L 90.705945 116.75788 
L 91.420283 118.196832 
L 91.777452 118.062885 
L 93.206128 119.523248 
L 93.920465 120.018191 
L 94.634803 121.471168 
L 95.70631 122.456863 
L 96.063479 123.576409 
L 96.420648 123.72173 
L 97.134986 124.512794 
L 97.492154 125.509111 
L 97.849323 125.397992 
L 98.206492 125.928996 
L 98.563661 126.80569 
L 98.92083 124.790125 
L 99.277999 125.938372 
L 99.635168 129.165606 
L 99.992337 125.384388 
L 100.349506 123.205518 
L 100.706675 123.232371 
L 101.063843 130.623578 
L 101.421012 120.101942 
L 101.778181 122.003684 
L 102.13535 113.7663 
L 102.492519 116.256379 
L 102.849688 126.070066 
L 103.206857 121.364472 
L 103.564026 131.323023 
L 103.921195 127.168433 
L 104.278364 130.694672 
L 104.635532 130.086088 
L 104.992701 130.156951 
L 105.34987 132.683662 
L 105.707039 131.721636 
L 106.064208 136.278418 
L 106.421377 136.960795 
L 107.135715 135.425711 
L 107.492884 140.037776 
L 107.850053 132.17197 
L 108.207221 130.480297 
L 108.56439 124.380065 
L 108.921559 129.615847 
L 109.278728 141.012327 
L 109.635897 115.493924 
L 109.993066 125.161793 
L 110.350235 116.469915 
L 110.707404 116.556076 
L 111.421742 128.405589 
L 111.77891 125.001102 
L 112.136079 137.702036 
L 112.493248 129.386953 
L 112.850417 135.139823 
L 113.207586 143.338773 
L 113.564755 131.293702 
L 113.921924 134.64729 
L 114.279093 128.335327 
L 114.636262 127.645268 
L 114.993431 133.322807 
L 115.350599 144.042157 
L 115.707768 118.709439 
L 116.064937 133.385477 
L 116.422106 126.222027 
L 116.779275 124.353506 
L 117.136444 127.15511 
L 117.850782 141.125781 
L 118.207951 126.670558 
L 118.56512 133.205932 
L 118.922288 129.0652 
L 119.279457 131.371687 
L 119.993795 139.390461 
L 120.350964 143.480239 
L 120.708133 139.205778 
L 121.065302 137.701251 
L 121.422471 147.236418 
L 121.77964 143.011752 
L 122.136809 147.534508 
L 122.493977 148.35227 
L 122.851146 145.773086 
L 123.208315 151.219675 
L 123.565484 154.346069 
L 123.922653 152.971364 
L 124.279822 156.035809 
L 124.636991 154.243147 
L 124.99416 149.151566 
L 125.351329 154.713705 
L 125.708498 150.712226 
L 126.065666 153.758072 
L 126.422835 161.904241 
L 126.780004 151.665313 
L 127.137173 146.305089 
L 127.494342 149.674386 
L 127.851511 147.725944 
L 128.20868 161.773314 
L 128.565849 151.982081 
L 129.280187 159.231941 
L 129.994524 162.746309 
L 130.351693 153.938242 
L 130.708862 163.319195 
L 131.066031 160.382793 
L 131.780369 148.285339 
L 132.137538 158.802418 
L 132.494707 152.513827 
L 132.851876 159.416084 
L 133.209044 156.358461 
L 133.566213 154.751991 
L 133.923382 167.433955 
L 134.280551 167.458578 
L 134.63772 159.172353 
L 134.994889 161.356357 
L 135.352058 166.77084 
L 135.709227 145.827905 
L 136.423565 125.608327 
L 136.780733 128.518565 
L 137.137902 147.586193 
L 137.495071 153.88274 
L 137.85224 143.126595 
L 138.209409 125.814198 
L 138.566578 142.181037 
L 139.280916 136.015808 
L 139.638085 147.398293 
L 140.352422 134.418671 
L 140.709591 139.997127 
L 141.423929 144.167711 
L 142.138267 155.203031 
L 142.495436 144.544819 
L 142.852605 150.362586 
L 143.209774 158.588822 
L 143.566943 149.529239 
L 143.924111 157.640527 
L 144.28128 154.879978 
L 144.638449 151.146003 
L 144.995618 158.653095 
L 145.352787 170.271177 
L 145.709956 161.462232 
L 146.067125 165.438853 
L 146.424294 171.143285 
L 146.781463 162.904187 
L 147.138632 170.579563 
L 147.852969 168.858735 
L 148.210138 173.063743 
L 148.567307 175.064331 
L 148.924476 176.36355 
L 149.638814 181.573978 
L 149.995983 182.467595 
L 150.353152 175.397675 
L 151.067489 166.756337 
L 151.424658 173.136482 
L 151.781827 169.895971 
L 152.138996 165.384145 
L 152.496165 168.725846 
L 152.853334 176.674049 
L 153.210503 170.402843 
L 153.567672 158.842856 
L 153.924841 167.480075 
L 154.28201 172.32924 
L 154.996347 167.239467 
L 155.353516 163.518919 
L 155.710685 169.298265 
L 156.067854 179.813148 
L 156.425023 173.504503 
L 157.139361 128.213455 
L 157.49653 131.231016 
L 157.853699 122.27192 
L 158.210867 158.054251 
L 158.568036 157.649982 
L 158.925205 114.965655 
L 159.282374 125.561035 
L 159.639543 115.619769 
L 159.996712 132.88645 
L 160.353881 132.256296 
L 160.71105 162.891786 
L 161.068219 154.298191 
L 161.782556 145.377512 
L 162.139725 152.401006 
L 162.496894 164.417791 
L 162.854063 163.727627 
L 163.211232 174.00386 
L 163.568401 161.441803 
L 163.92557 171.248725 
L 164.282739 158.179045 
L 164.639908 170.283168 
L 164.997077 158.567506 
L 165.354245 156.851446 
L 165.711414 167.781015 
L 166.068583 175.251183 
L 166.425752 173.015472 
L 166.782921 164.431307 
L 167.14009 172.46255 
L 167.497259 174.784342 
L 168.211597 183.904167 
L 168.568765 176.097972 
L 168.925934 186.405668 
L 169.283103 186.813741 
L 169.640272 181.65461 
L 169.997441 182.896812 
L 170.35461 184.908345 
L 171.068948 191.203831 
L 171.426117 191.588923 
L 171.783286 190.881886 
L 172.140454 191.577311 
L 172.497623 194.878916 
L 172.854792 194.52843 
L 173.211961 186.040025 
L 173.56913 171.852242 
L 173.926299 172.225117 
L 174.283468 183.889439 
L 174.640637 186.983115 
L 174.997806 181.005879 
L 175.354975 192.297388 
L 175.712143 181.190563 
L 176.069312 190.897382 
L 176.426481 184.198354 
L 176.78365 181.072933 
L 177.140819 191.407625 
L 177.497988 181.577961 
L 177.855157 177.417459 
L 178.212326 185.416801 
L 178.569495 188.326641 
L 179.283832 159.88512 
L 179.641001 181.459567 
L 179.99817 152.490777 
L 180.712508 170.881479 
L 181.069677 133.311173 
L 181.426846 158.245172 
L 181.784015 159.874604 
L 182.141184 146.96572 
L 182.498353 153.529824 
L 183.21269 180.738114 
L 183.569859 134.360288 
L 183.927028 154.670991 
L 184.284197 147.311269 
L 184.641366 170.287999 
L 184.998535 170.811991 
L 185.355704 170.710881 
L 185.712873 163.655384 
L 186.070042 164.847075 
L 186.42721 167.742689 
L 187.141548 182.064523 
L 187.498717 184.440651 
L 187.855886 179.459223 
L 188.213055 176.456949 
L 188.570224 191.670671 
L 188.927393 179.187711 
L 189.284562 180.880131 
L 189.641731 184.246892 
L 189.998899 191.858934 
L 190.356068 191.501217 
L 190.713237 185.011605 
L 191.070406 181.310493 
L 191.427575 182.579917 
L 192.141913 192.140261 
L 192.499082 190.395837 
L 192.856251 198.333498 
L 193.21342 199.914512 
L 193.570588 197.453386 
L 193.927757 199.208901 
L 194.284926 199.798273 
L 194.642095 196.703825 
L 194.999264 200.977479 
L 195.356433 193.850403 
L 195.713602 191.896307 
L 196.070771 199.317773 
L 196.42794 199.231005 
L 196.785109 196.027195 
L 197.856615 204.774114 
L 198.213784 199.756064 
L 198.570953 199.512045 
L 198.928122 202.841284 
L 199.285291 202.909814 
L 199.64246 191.368914 
L 199.999629 189.355644 
L 200.356798 179.988855 
L 200.713966 194.173429 
L 201.071135 191.916 
L 201.428304 185.317608 
L 201.785473 199.361964 
L 202.142642 196.437172 
L 202.499811 190.819863 
L 202.85698 206.113009 
L 203.571318 198.899972 
L 203.928487 203.605439 
L 204.285655 204.456578 
L 204.642824 208.56744 
L 204.999993 210.919463 
L 205.357162 208.3722 
L 206.0715 209.114943 
L 206.428669 210.144068 
L 206.785838 210.204946 
L 207.143007 207.532342 
L 207.500176 203.014188 
L 207.857344 202.902716 
L 208.214513 203.521591 
L 208.571682 202.94326 
L 208.928851 203.087655 
L 209.28602 192.428776 
L 209.643189 186.494677 
L 210.000358 187.998082 
L 210.357527 197.557342 
L 210.714696 204.139848 
L 211.071865 185.826606 
L 211.429033 183.750587 
L 211.786202 197.351318 
L 212.143371 194.316138 
L 212.50054 202.340267 
L 212.857709 200.219851 
L 213.214878 192.670725 
L 213.572047 203.542146 
L 213.929216 197.533136 
L 214.643554 209.448625 
L 215.000722 201.774951 
L 215.357891 200.165101 
L 215.71506 197.756453 
L 216.072229 181.096158 
L 216.429398 172.763038 
L 216.786567 158.651416 
L 217.143736 175.127196 
L 217.500905 175.457973 
L 217.858074 160.467447 
L 218.572411 185.86056 
L 218.92958 174.463645 
L 219.286749 170.049114 
L 220.001087 183.781017 
L 220.358256 166.916169 
L 220.715425 172.104901 
L 221.072594 187.911464 
L 221.429763 184.986567 
L 221.786932 180.020625 
L 222.1441 195.313594 
L 222.501269 190.632327 
L 222.858438 170.447717 
L 223.215607 172.840729 
L 223.572776 191.682576 
L 223.929945 167.504127 
L 224.287114 166.106352 
L 225.001452 200.15226 
L 225.715789 175.175441 
L 226.072958 196.967865 
L 226.430127 194.596889 
L 226.787296 187.412017 
L 227.144465 195.538824 
L 227.858803 189.199816 
L 228.215972 200.368941 
L 228.573141 195.14977 
L 228.93031 193.690768 
L 229.287478 195.581341 
L 229.644647 199.708243 
L 230.001816 200.668857 
L 230.358985 195.824705 
L 230.716154 204.328047 
L 231.073323 204.803699 
L 231.430492 191.457499 
L 231.787661 192.306876 
L 232.501999 166.302263 
L 232.859167 166.267684 
L 233.216336 188.207781 
L 233.573505 172.775296 
L 233.930674 199.202199 
L 234.287843 172.692484 
L 234.645012 175.814 
L 235.002181 189.670601 
L 235.35935 196.218581 
L 235.716519 197.684502 
L 236.073688 190.174264 
L 236.430856 190.63804 
L 236.788025 198.979882 
L 237.145194 192.704189 
L 237.502363 196.251236 
L 237.859532 201.26821 
L 238.57387 205.346515 
L 238.931039 204.99319 
L 239.288208 198.571991 
L 239.645377 205.727965 
L 240.002545 206.194706 
L 240.359714 203.387821 
L 240.716883 207.195146 
L 241.074052 205.104011 
L 241.431221 193.229266 
L 241.78839 185.103234 
L 242.145559 172.01157 
L 242.859897 207.182589 
L 243.574234 181.309412 
L 243.931403 195.72376 
L 244.288572 202.621503 
L 244.645741 196.009445 
L 245.00291 183.23368 
L 245.360079 149.918442 
L 245.717248 135.814041 
L 246.074417 149.698016 
L 246.431586 128.785646 
L 246.788755 171.713762 
L 247.145923 169.358154 
L 247.503092 171.616549 
L 247.860261 177.821418 
L 248.21743 176.75965 
L 248.931768 188.749294 
L 249.288937 185.503835 
L 249.646106 189.133448 
L 250.003275 190.100507 
L 250.717612 201.740328 
L 251.074781 204.800442 
L 251.43195 196.402329 
L 251.789119 205.422113 
L 252.146288 203.999164 
L 252.503457 190.674485 
L 252.860626 208.733514 
L 253.217795 207.946196 
L 253.574964 200.706748 
L 253.932133 211.99402 
L 254.289301 186.922316 
L 254.64647 203.460043 
L 255.003639 196.293524 
L 255.717977 213.962429 
L 256.432315 210.539335 
L 256.789484 206.840657 
L 257.146653 208.002135 
L 257.503822 211.331297 
L 258.218159 215.107415 
L 258.575328 219.519448 
L 258.932497 222.324807 
L 259.289666 221.401488 
L 259.646835 219.687853 
L 260.004004 220.073442 
L 260.361173 221.964493 
L 260.718342 222.349856 
L 261.075511 221.741781 
L 261.432679 222.274733 
L 261.789848 223.236273 
L 262.147017 223.603705 
L 262.861355 223.316933 
L 263.575693 225.864218 
L 264.290031 224.310008 
L 265.004368 226.404893 
L 265.718706 225.916582 
L 266.433044 226.898043 
L 267.147382 227.099266 
L 267.504551 227.629483 
L 267.86172 227.830684 
L 268.218889 227.645368 
L 268.576057 227.791039 
L 268.933226 228.212143 
L 269.290395 228.356129 
L 269.647564 228.335531 
L 273.219253 229.694766 
L 273.576422 229.766444 
L 274.29076 230.10816 
L 275.005098 230.319136 
L 275.719435 230.512553 
L 276.076604 230.716875 
L 276.790942 230.902075 
L 278.576787 231.558134 
L 280.362631 232.111379 
L 285.720165 233.822189 
L 294.292218 236.484287 
L 294.649387 236.454394 
L 295.006556 236.759798 
L 295.363725 236.77691 
L 295.720894 237.052949 
L 296.078063 236.804766 
L 296.7924 237.069777 
L 297.149569 236.719042 
L 297.506738 237.206505 
L 297.863907 236.900371 
L 298.221076 236.957441 
L 298.578245 237.617911 
L 298.935414 237.021207 
L 299.292583 237.624116 
L 299.649752 237.532366 
L 300.006921 237.875704 
L 300.364089 237.767031 
L 300.721258 238.560552 
L 301.078427 238.064555 
L 301.435596 238.740823 
L 301.792765 238.05111 
L 302.149934 238.959465 
L 302.507103 238.669701 
L 302.864272 239.06124 
L 303.221441 239.265748 
L 304.292947 239.28852 
L 304.650116 239.564368 
L 305.364454 239.22352 
L 305.721623 240.149282 
L 306.078792 238.373683 
L 306.435961 239.545142 
L 306.79313 239.160851 
L 307.150299 239.766144 
L 307.507467 239.59456 
L 307.864636 240.64131 
L 308.221805 239.174179 
L 308.578974 240.445414 
L 308.936143 239.379191 
L 309.293312 241.005588 
L 309.650481 240.496453 
L 310.00765 241.034003 
L 310.364819 241.08555 
L 311.793494 241.788966 
L 312.150663 242.483301 
L 312.507832 243.554727 
L 312.865001 245.237485 
L 313.22217 247.845348 
L 313.579339 245.310525 
L 313.936508 247.88299 
L 314.293677 246.741318 
L 314.650845 247.784475 
L 315.008014 246.896912 
L 315.365183 248.145673 
L 315.722352 248.719977 
L 316.079521 249.05478 
L 316.43669 248.035068 
L 316.793859 249.342248 
L 317.151028 249.563571 
L 317.865366 249.655281 
L 318.222534 250.368939 
L 318.579703 249.964761 
L 318.936872 249.972331 
L 319.294041 250.474873 
L 319.65121 250.712934 
L 320.008379 250.498346 
L 320.365548 250.713501 
L 320.722717 251.203165 
L 321.079886 251.36545 
L 321.437055 250.887588 
L 322.151392 251.742775 
L 322.508561 251.542101 
L 322.86573 251.906335 
L 324.294406 252.630869 
L 324.651575 252.513557 
L 325.008744 252.755272 
L 325.365912 252.667516 
L 325.723081 253.096392 
L 326.08025 252.865388 
L 326.437419 253.04921 
L 326.794588 253.441532 
L 327.151757 253.271389 
L 327.508926 253.741006 
L 327.866095 253.79867 
L 328.223264 254.109905 
L 328.580433 254.036491 
L 328.937601 254.296975 
L 329.651939 254.517264 
L 330.366277 254.943771 
L 330.723446 254.790091 
L 331.080615 255.12086 
L 331.794953 255.269881 
L 332.152122 255.657554 
L 332.50929 255.70054 
L 333.937966 256.446348 
L 334.295135 256.418015 
L 334.652304 257.290653 
L 335.009473 257.774103 
L 335.366642 258.921355 
L 336.080979 263.868853 
L 336.438148 260.813165 
L 336.795317 249.95416 
L 337.152486 258.151914 
L 337.509655 247.725779 
L 337.866824 254.033745 
L 338.223993 252.560321 
L 338.581162 260.154443 
L 339.2955 256.573197 
L 340.367006 264.634135 
L 340.724175 261.390906 
L 341.081344 260.1583 
L 341.438513 263.323791 
L 341.795682 262.295063 
L 342.152851 264.406939 
L 342.51002 262.524903 
L 343.224357 264.13197 
L 343.581526 264.635054 
L 343.938695 262.936122 
L 344.295864 262.622732 
L 345.010202 266.659147 
L 345.367371 264.64633 
L 345.72454 265.949705 
L 346.081709 266.77328 
L 346.796046 267.513923 
L 347.153215 267.239672 
L 347.510384 268.067019 
L 347.867553 268.156961 
L 348.224722 268.037635 
L 348.581891 268.660457 
L 348.93906 268.357195 
L 349.296229 268.504454 
L 349.653398 269.203346 
L 350.010567 269.018976 
L 350.367735 269.076702 
L 350.724904 269.614087 
L 351.082073 269.339118 
L 351.796411 269.951093 
L 352.510749 270.026422 
L 352.867918 270.462498 
L 353.582256 270.482448 
L 353.939424 270.825072 
L 354.296593 271.011401 
L 354.653762 271.040381 
L 355.010931 271.329651 
L 355.725269 271.445175 
L 356.082438 271.831935 
L 356.796776 271.775073 
L 357.153945 272.408576 
L 357.511113 272.116643 
L 357.868282 272.205334 
L 358.225451 272.585569 
L 358.58262 272.460769 
L 358.939789 272.678216 
L 359.296958 273.124924 
L 359.654127 272.85098 
L 360.011296 272.849907 
L 360.368465 273.476448 
L 361.082802 273.248229 
L 361.439971 273.981803 
L 362.154309 273.882837 
L 362.511478 274.367245 
L 363.225816 274.146838 
L 363.582985 274.945365 
L 363.940154 274.214126 
L 364.297323 274.028353 
L 364.654491 274.147053 
L 365.01166 275.25008 
L 365.368829 274.706184 
L 365.725998 275.465071 
L 366.083167 275.111134 
L 366.440336 274.985659 
L 366.797505 275.559296 
L 367.154674 275.844208 
L 367.511843 275.963557 
L 367.869012 276.293185 
L 368.22618 275.739883 
L 368.583349 275.68769 
L 368.940518 276.537073 
L 369.297687 276.44637 
L 369.654856 275.67217 
L 370.012025 277.047072 
L 370.726363 276.909578 
L 371.083532 277.398299 
L 371.797869 277.772789 
L 372.155038 277.877843 
L 372.512207 278.117001 
L 372.869376 278.168079 
L 373.226545 278.413304 
L 373.940883 278.452705 
L 374.298052 278.83914 
L 374.655221 278.851612 
L 375.01239 278.483704 
L 375.369558 279.221282 
L 375.726727 278.608291 
L 376.083896 278.994759 
L 376.441065 279.678216 
L 376.798234 278.824075 
L 377.155403 279.348719 
L 377.512572 278.585361 
L 378.22691 279.394893 
L 378.584079 280.507389 
L 378.941247 280.068375 
L 379.298416 280.584618 
L 379.655585 280.452176 
L 380.012754 280.905293 
L 380.369923 280.566814 
L 380.727092 280.056892 
L 381.084261 280.048956 
L 381.44143 281.3699 
L 381.798599 280.631884 
L 382.155768 281.508521 
L 382.512936 280.596946 
L 382.870105 281.561096 
L 383.227274 281.698203 
L 383.584443 281.270515 
L 383.941612 282.036089 
L 384.298781 280.918643 
L 384.65595 281.157188 
L 385.013119 280.482042 
L 385.370288 281.635375 
L 385.727457 281.689843 
L 386.084625 281.109425 
L 386.441794 281.686078 
L 386.798963 281.904676 
L 387.156132 281.025265 
L 387.513301 281.53355 
L 387.87047 282.720264 
L 388.227639 283.449617 
L 388.584808 281.415597 
L 388.941977 280.798029 
L 389.299145 282.486376 
L 389.656314 283.368023 
L 390.013483 279.905957 
L 390.370652 279.807565 
L 390.727821 281.615389 
L 391.08499 282.525106 
L 391.442159 281.207517 
L 391.799328 280.58911 
L 392.156497 282.808838 
L 392.513666 283.206983 
L 392.870834 281.345844 
L 393.228003 283.857647 
L 393.942341 280.540698 
L 394.29951 282.572399 
L 394.656679 283.961225 
L 395.013848 282.400695 
L 395.371017 284.312348 
L 395.728186 283.643496 
L 396.085355 281.949487 
L 396.799692 284.033784 
L 397.156861 282.62346 
L 397.51403 284.780898 
L 397.871199 283.837639 
L 398.228368 282.281215 
L 398.585537 284.24125 
L 398.942706 284.366606 
L 399.299875 283.107354 
L 399.657044 285.543564 
L 400.371381 282.286679 
L 400.72855 284.278688 
L 401.085719 284.94083 
L 401.442888 283.174811 
L 401.800057 285.764954 
L 402.514395 281.878874 
L 403.228733 284.962179 
L 403.585901 283.070259 
L 403.94307 285.191535 
L 404.300239 285.526056 
L 404.657408 283.673362 
L 405.014577 285.271625 
L 405.371746 286.306301 
L 405.728915 285.317624 
L 406.086084 286.911688 
L 406.800422 284.635766 
L 407.15759 284.589785 
L 407.871928 287.217917 
L 408.229097 285.523272 
L 408.943435 286.207343 
L 409.300604 287.13738 
L 409.657773 287.488189 
L 410.014942 286.841394 
L 410.372111 285.648801 
L 410.729279 286.016058 
L 411.086448 287.284227 
L 411.443617 287.72274 
L 411.800786 286.852886 
L 412.157955 286.574435 
L 412.515124 287.322432 
L 412.872293 286.236048 
L 413.229462 287.636226 
L 413.9438 282.674245 
L 414.300968 282.846794 
L 414.658137 285.436493 
L 415.015306 285.652193 
L 415.372475 284.104842 
L 416.086813 287.111617 
L 416.801151 285.450452 
L 417.15832 288.003203 
L 417.515489 287.13947 
L 417.872657 283.363334 
L 418.229826 283.882154 
L 418.586995 288.691266 
L 418.944164 286.488378 
L 419.301333 286.109857 
L 419.658502 286.961826 
L 420.015671 286.931524 
L 420.37284 287.109539 
L 420.730009 287.585876 
L 421.087178 289.536734 
L 421.444346 286.932423 
L 421.801515 287.953766 
L 422.158684 286.774649 
L 422.515853 288.40085 
L 422.873022 288.77402 
L 423.230191 289.636816 
L 423.944529 289.103316 
L 424.301698 289.754582 
L 424.658867 290.036395 
L 425.016035 288.579374 
L 425.373204 289.209165 
L 425.730373 290.994545 
L 426.087542 288.596847 
L 427.159049 289.072256 
L 427.516218 288.456753 
L 427.873387 290.834631 
L 428.230556 288.50164 
L 428.587724 288.589514 
L 428.944893 286.441114 
L 429.302062 289.020076 
L 429.659231 289.391359 
L 430.0164 288.075511 
L 430.373569 287.775178 
L 430.730738 290.461437 
L 431.445076 283.34903 
L 431.802245 284.295704 
L 432.159413 290.797774 
L 432.159413 290.797774 
" style="fill:none;stroke:#000000;stroke-linecap:square;stroke-width:1.5;"/>
   </g>
   <g id="patch_3">
    <path d="M 57.507096 303.64 
L 57.507096 25.44 
" style="fill:none;stroke:#000000;stroke-linecap:square;stroke-linejoin:miter;stroke-width:0.8;"/>
   </g>
   <g id="patch_4">
    <path d="M 450 303.64 
L 450 25.44 
" style="fill:none;stroke:#000000;stroke-linecap:square;stroke-linejoin:miter;stroke-width:0.8;"/>
   </g>
   <g id="patch_5">
    <path d="M 57.507096 303.64 
L 450 303.64 
" style="fill:none;stroke:#000000;stroke-linecap:square;stroke-linejoin:miter;stroke-width:0.8;"/>
   </g>
   <g id="patch_6">
    <path d="M 57.507096 25.44 
L 450 25.44 
" style="fill:none;stroke:#000000;stroke-linecap:square;stroke-linejoin:miter;stroke-width:0.8;"/>
   </g>
   <g id="text_11">
    <!-- Training History -->
    <defs>
     <path d="M -0.296875 72.90625 
L 61.375 72.90625 
L 61.375 64.59375 
L 35.5 64.59375 
L 35.5 0 
L 25.59375 0 
L 25.59375 64.59375 
L -0.296875 64.59375 
z
" id="DejaVuSans-84"/>
     <path d="M 34.28125 27.484375 
Q 23.390625 27.484375 19.1875 25 
Q 14.984375 22.515625 14.984375 16.5 
Q 14.984375 11.71875 18.140625 8.90625 
Q 21.296875 6.109375 26.703125 6.109375 
Q 34.1875 6.109375 38.703125 11.40625 
Q 43.21875 16.703125 43.21875 25.484375 
L 43.21875 27.484375 
z
M 52.203125 31.203125 
L 52.203125 0 
L 43.21875 0 
L 43.21875 8.296875 
Q 40.140625 3.328125 35.546875 0.953125 
Q 30.953125 -1.421875 24.3125 -1.421875 
Q 15.921875 -1.421875 10.953125 3.296875 
Q 6 8.015625 6 15.921875 
Q 6 25.140625 12.171875 29.828125 
Q 18.359375 34.515625 30.609375 34.515625 
L 43.21875 34.515625 
L 43.21875 35.40625 
Q 43.21875 41.609375 39.140625 45 
Q 35.0625 48.390625 27.6875 48.390625 
Q 23 48.390625 18.546875 47.265625 
Q 14.109375 46.140625 10.015625 43.890625 
L 10.015625 52.203125 
Q 14.9375 54.109375 19.578125 55.046875 
Q 24.21875 56 28.609375 56 
Q 40.484375 56 46.34375 49.84375 
Q 52.203125 43.703125 52.203125 31.203125 
z
" id="DejaVuSans-97"/>
     <path d="M 9.421875 54.6875 
L 18.40625 54.6875 
L 18.40625 0 
L 9.421875 0 
z
M 9.421875 75.984375 
L 18.40625 75.984375 
L 18.40625 64.59375 
L 9.421875 64.59375 
z
" id="DejaVuSans-105"/>
     <path d="M 54.890625 33.015625 
L 54.890625 0 
L 45.90625 0 
L 45.90625 32.71875 
Q 45.90625 40.484375 42.875 44.328125 
Q 39.84375 48.1875 33.796875 48.1875 
Q 26.515625 48.1875 22.3125 43.546875 
Q 18.109375 38.921875 18.109375 30.90625 
L 18.109375 0 
L 9.078125 0 
L 9.078125 54.6875 
L 18.109375 54.6875 
L 18.109375 46.1875 
Q 21.34375 51.125 25.703125 53.5625 
Q 30.078125 56 35.796875 56 
Q 45.21875 56 50.046875 50.171875 
Q 54.890625 44.34375 54.890625 33.015625 
z
" id="DejaVuSans-110"/>
     <path d="M 45.40625 27.984375 
Q 45.40625 37.75 41.375 43.109375 
Q 37.359375 48.484375 30.078125 48.484375 
Q 22.859375 48.484375 18.828125 43.109375 
Q 14.796875 37.75 14.796875 27.984375 
Q 14.796875 18.265625 18.828125 12.890625 
Q 22.859375 7.515625 30.078125 7.515625 
Q 37.359375 7.515625 41.375 12.890625 
Q 45.40625 18.265625 45.40625 27.984375 
z
M 54.390625 6.78125 
Q 54.390625 -7.171875 48.1875 -13.984375 
Q 42 -20.796875 29.203125 -20.796875 
Q 24.46875 -20.796875 20.265625 -20.09375 
Q 16.0625 -19.390625 12.109375 -17.921875 
L 12.109375 -9.1875 
Q 16.0625 -11.328125 19.921875 -12.34375 
Q 23.78125 -13.375 27.78125 -13.375 
Q 36.625 -13.375 41.015625 -8.765625 
Q 45.40625 -4.15625 45.40625 5.171875 
L 45.40625 9.625 
Q 42.625 4.78125 38.28125 2.390625 
Q 33.9375 0 27.875 0 
Q 17.828125 0 11.671875 7.65625 
Q 5.515625 15.328125 5.515625 27.984375 
Q 5.515625 40.671875 11.671875 48.328125 
Q 17.828125 56 27.875 56 
Q 33.9375 56 38.28125 53.609375 
Q 42.625 51.21875 45.40625 46.390625 
L 45.40625 54.6875 
L 54.390625 54.6875 
z
" id="DejaVuSans-103"/>
     <path id="DejaVuSans-32"/>
     <path d="M 9.8125 72.90625 
L 19.671875 72.90625 
L 19.671875 43.015625 
L 55.515625 43.015625 
L 55.515625 72.90625 
L 65.375 72.90625 
L 65.375 0 
L 55.515625 0 
L 55.515625 34.71875 
L 19.671875 34.71875 
L 19.671875 0 
L 9.8125 0 
z
" id="DejaVuSans-72"/>
     <path d="M 44.28125 53.078125 
L 44.28125 44.578125 
Q 40.484375 46.53125 36.375 47.5 
Q 32.28125 48.484375 27.875 48.484375 
Q 21.1875 48.484375 17.84375 46.4375 
Q 14.5 44.390625 14.5 40.28125 
Q 14.5 37.15625 16.890625 35.375 
Q 19.28125 33.59375 26.515625 31.984375 
L 29.59375 31.296875 
Q 39.15625 29.25 43.1875 25.515625 
Q 47.21875 21.78125 47.21875 15.09375 
Q 47.21875 7.46875 41.1875 3.015625 
Q 35.15625 -1.421875 24.609375 -1.421875 
Q 20.21875 -1.421875 15.453125 -0.5625 
Q 10.6875 0.296875 5.421875 2 
L 5.421875 11.28125 
Q 10.40625 8.6875 15.234375 7.390625 
Q 20.0625 6.109375 24.8125 6.109375 
Q 31.15625 6.109375 34.5625 8.28125 
Q 37.984375 10.453125 37.984375 14.40625 
Q 37.984375 18.0625 35.515625 20.015625 
Q 33.0625 21.96875 24.703125 23.78125 
L 21.578125 24.515625 
Q 13.234375 26.265625 9.515625 29.90625 
Q 5.8125 33.546875 5.8125 39.890625 
Q 5.8125 47.609375 11.28125 51.796875 
Q 16.75 56 26.8125 56 
Q 31.78125 56 36.171875 55.265625 
Q 40.578125 54.546875 44.28125 53.078125 
z
" id="DejaVuSans-115"/>
     <path d="M 18.3125 70.21875 
L 18.3125 54.6875 
L 36.8125 54.6875 
L 36.8125 47.703125 
L 18.3125 47.703125 
L 18.3125 18.015625 
Q 18.3125 11.328125 20.140625 9.421875 
Q 21.96875 7.515625 27.59375 7.515625 
L 36.8125 7.515625 
L 36.8125 0 
L 27.59375 0 
Q 17.1875 0 13.234375 3.875 
Q 9.28125 7.765625 9.28125 18.015625 
L 9.28125 47.703125 
L 2.6875 47.703125 
L 2.6875 54.6875 
L 9.28125 54.6875 
L 9.28125 70.21875 
z
" id="DejaVuSans-116"/>
     <path d="M 32.171875 -5.078125 
Q 28.375 -14.84375 24.75 -17.8125 
Q 21.140625 -20.796875 15.09375 -20.796875 
L 7.90625 -20.796875 
L 7.90625 -13.28125 
L 13.1875 -13.28125 
Q 16.890625 -13.28125 18.9375 -11.515625 
Q 21 -9.765625 23.484375 -3.21875 
L 25.09375 0.875 
L 2.984375 54.6875 
L 12.5 54.6875 
L 29.59375 11.921875 
L 46.6875 54.6875 
L 56.203125 54.6875 
z
" id="DejaVuSans-121"/>
    </defs>
    <g transform="translate(205.957923 19.44)scale(0.12 -0.12)">
     <use xlink:href="#DejaVuSans-84"/>
     <use x="60.865234" xlink:href="#DejaVuSans-114"/>
     <use x="101.978516" xlink:href="#DejaVuSans-97"/>
     <use x="163.257812" xlink:href="#DejaVuSans-105"/>
     <use x="191.041016" xlink:href="#DejaVuSans-110"/>
     <use x="254.419922" xlink:href="#DejaVuSans-105"/>
     <use x="282.203125" xlink:href="#DejaVuSans-110"/>
     <use x="345.582031" xlink:href="#DejaVuSans-103"/>
     <use x="409.058594" xlink:href="#DejaVuSans-32"/>
     <use x="440.845703" xlink:href="#DejaVuSans-72"/>
     <use x="516.041016" xlink:href="#DejaVuSans-105"/>
     <use x="543.824219" xlink:href="#DejaVuSans-115"/>
     <use x="595.923828" xlink:href="#DejaVuSans-116"/>
     <use x="635.132812" xlink:href="#DejaVuSans-111"/>
     <use x="696.314453" xlink:href="#DejaVuSans-114"/>
     <use x="737.427734" xlink:href="#DejaVuSans-121"/>
    </g>
   </g>
   <g id="legend_1">
    <g id="patch_7">
     <path d="M 344.685938 48.118125 
L 443 48.118125 
Q 445 48.118125 445 46.118125 
L 445 32.44 
Q 445 30.44 443 30.44 
L 344.685938 30.44 
Q 342.685938 30.44 342.685938 32.44 
L 342.685938 46.118125 
Q 342.685938 48.118125 344.685938 48.118125 
z
" style="fill:#ffffff;opacity:0.8;stroke:#cccccc;stroke-linejoin:miter;"/>
    </g>
    <g id="line2d_64">
     <path d="M 346.685938 38.538437 
L 366.685938 38.538437 
" style="fill:none;stroke:#000000;stroke-linecap:square;stroke-width:1.5;"/>
    </g>
    <g id="line2d_65"/>
    <g id="text_12">
     <!-- Training Cost -->
     <defs>
      <path d="M 64.40625 67.28125 
L 64.40625 56.890625 
Q 59.421875 61.53125 53.78125 63.8125 
Q 48.140625 66.109375 41.796875 66.109375 
Q 29.296875 66.109375 22.65625 58.46875 
Q 16.015625 50.828125 16.015625 36.375 
Q 16.015625 21.96875 22.65625 14.328125 
Q 29.296875 6.6875 41.796875 6.6875 
Q 48.140625 6.6875 53.78125 8.984375 
Q 59.421875 11.28125 64.40625 15.921875 
L 64.40625 5.609375 
Q 59.234375 2.09375 53.4375 0.328125 
Q 47.65625 -1.421875 41.21875 -1.421875 
Q 24.65625 -1.421875 15.125 8.703125 
Q 5.609375 18.84375 5.609375 36.375 
Q 5.609375 53.953125 15.125 64.078125 
Q 24.65625 74.21875 41.21875 74.21875 
Q 47.75 74.21875 53.53125 72.484375 
Q 59.328125 70.75 64.40625 67.28125 
z
" id="DejaVuSans-67"/>
     </defs>
     <g transform="translate(374.685938 42.038437)scale(0.1 -0.1)">
      <use xlink:href="#DejaVuSans-84"/>
      <use x="60.865234" xlink:href="#DejaVuSans-114"/>
      <use x="101.978516" xlink:href="#DejaVuSans-97"/>
      <use x="163.257812" xlink:href="#DejaVuSans-105"/>
      <use x="191.041016" xlink:href="#DejaVuSans-110"/>
      <use x="254.419922" xlink:href="#DejaVuSans-105"/>
      <use x="282.203125" xlink:href="#DejaVuSans-110"/>
      <use x="345.582031" xlink:href="#DejaVuSans-103"/>
      <use x="409.058594" xlink:href="#DejaVuSans-32"/>
      <use x="440.845703" xlink:href="#DejaVuSans-67"/>
      <use x="510.669922" xlink:href="#DejaVuSans-111"/>
      <use x="571.851562" xlink:href="#DejaVuSans-115"/>
      <use x="623.951172" xlink:href="#DejaVuSans-116"/>
     </g>
    </g>
   </g>
  </g>
 </g>
 <defs>
  <clipPath id="p0d405029cd">
   <rect height="278.2" width="392.492904" x="57.507096" y="25.44"/>
  </clipPath>
 </defs>
</svg>
